<?xml version="1.0" encoding="UTF-8"?>
<!DOCTYPE svg PUBLIC "-//W3C//DTD SVG 1.1//EN" "http://www.w3.org/Graphics/SVG/1.1/DTD/svg11.dtd">
<!-- Creator: CorelDRAW 2020 (64-Bit) -->
<svg xmlns="http://www.w3.org/2000/svg" xml:space="preserve" width="512px" height="512px" version="1.1" style="shape-rendering:geometricPrecision; text-rendering:geometricPrecision; image-rendering:optimizeQuality; fill-rule:evenodd; clip-rule:evenodd"
viewBox="0 0 512 512"
 xmlns:xlink="http://www.w3.org/1999/xlink"
 xmlns:xodm="http://www.corel.com/coreldraw/odm/2003">
 <defs>
  <style type="text/css">
   <![CDATA[
    .fil0 {fill:white;fill-rule:nonzero}
   ]]>
  </style>
 </defs>
 <g id="Layer_x0020_1">
  <metadata id="CorelCorpID_0Corel-Layer"/>
  <path class="fil0" d="M165.4 73.02c8.55,7.74 9.24,20.97 1.48,29.56l-62.74 69.8c-3.85,4.18 -9.27,6.71 -15.01,6.1 -5.74,0.96 -11.28,-1.31 -15.35,-6.1l-34.88 -34.88c-8.17,-7.41 -8.17,-20.67 0,-28.84 8.17,-8.17 21.43,-8.17 29.6,0l19.28 19.25 48.06 -53.33c7.68,-8.59 20.93,-9.29 29.56,-1.56l0 0zm0 139.56c8.55,7.67 9.24,20.92 1.48,29.56l-62.74 69.76c-3.85,4.18 -9.27,6.71 -15.01,6.1 -5.74,0.96 -11.28,-1.31 -15.35,-6.1l-34.88 -34.88c-8.17,-7.42 -8.17,-20.67 0,-28.87 8.17,-8.11 21.43,-8.11 29.6,0l19.28 19.27 48.06 -53.36c7.68,-8.55 20.93,-9.24 29.56,-1.48l0 0zm62.7 -89.12c0,-15.41 12.47,-27.9 27.9,-27.9l195.33 0c15.43,0 27.9,12.49 27.9,27.9 0,15.43 -12.47,27.9 -27.9,27.9l-195.33 0c-15.43,0 -27.9,-12.47 -27.9,-27.9l0 0zm0 139.52c0,-15.44 12.47,-27.91 27.9,-27.91l195.33 0c15.43,0 27.9,12.47 27.9,27.91 0,15.43 -12.47,27.9 -27.9,27.9l-195.33 0c-15.43,0 -27.9,-12.47 -27.9,-27.9zm-55.81 139.51c0,-15.43 12.47,-27.9 27.9,-27.9l251.14 0c15.43,0 27.9,12.47 27.9,27.9 0,15.44 -12.47,27.91 -27.9,27.91l-251.14 0c-15.43,0 -27.9,-12.47 -27.9,-27.91zm-139.52 0c0,-23.1 18.74,-41.85 41.86,-41.85 23.11,0 41.85,18.75 41.85,41.85 0,23.11 -18.74,41.86 -41.85,41.86 -23.12,0 -41.86,-18.75 -41.86,-41.86z"/>
 </g>
</svg>
